<svg width="25" height="19" viewBox="0 0 25 19" fill="none" xmlns="http://www.w3.org/2000/svg">
<path d="M25 15.7504C25 16.4871 24.7073 17.1937 24.1864 17.7146C23.6655 18.2356 22.9589 18.5282 22.2222 18.5282H2.77778C2.04107 18.5282 1.33453 18.2356 0.813592 17.7146C0.292658 17.1937 0 16.4871 0 15.7504V3.25043C0 2.51372 0.292658 1.80718 0.813592 1.28625C1.33453 0.765314 2.04107 0.472656 2.77778 0.472656H22.2222C22.9589 0.472656 23.6655 0.765314 24.1864 1.28625C24.7073 1.80718 25 2.51372 25 3.25043V15.7504Z" fill="#009B3A"/>
<path d="M22.728 9.50011L12.5002 17.2251L2.27246 9.50011L12.5002 1.77441L22.728 9.50011Z" fill="#FEDF01"/>
<path d="M12.4837 13.9323C14.9606 13.9323 16.9685 11.9245 16.9685 9.44761C16.9685 6.97077 14.9606 4.96289 12.4837 4.96289C10.0069 4.96289 7.99902 6.97077 7.99902 9.44761C7.99902 11.9245 10.0069 13.9323 12.4837 13.9323Z" fill="#002776"/>
<path d="M8.52526 7.33796C8.29234 7.7769 8.1346 8.25176 8.05859 8.74282C10.8329 8.54144 14.5982 10.056 16.2142 11.9338C16.4933 11.5144 16.7003 11.0449 16.8273 10.5421C14.8329 8.59213 11.3294 7.32685 8.52526 7.33796Z" fill="#CBE9D4"/>
<path d="M8.33301 9.66211H9.02745V10.3566H8.33301V9.66211ZM9.02745 11.051H9.7219V11.7454H9.02745V11.051Z" fill="#88C9F9"/>
<path d="M10.417 9.66135H11.1114V10.3558H10.417V9.66135ZM11.8059 10.3558H12.5003V11.0502H11.8059V10.3558ZM14.5837 11.7447H15.2781V12.4391H14.5837V11.7447ZM12.5003 12.4391H13.1948V13.1336H12.5003V12.4391ZM14.5837 8.27246H15.2781V8.96691H14.5837V8.27246Z" fill="#55ACEE"/>
<path d="M13.1943 11.0508H13.8888V11.7452H13.1943V11.0508Z" fill="#3B88C3"/>
</svg>
