<svg width="26" height="25" viewBox="0 0 26 25" fill="none" xmlns="http://www.w3.org/2000/svg">
<path d="M13.0003 0.500089C10.0236 0.488862 7.14062 1.54028 4.87002 3.46517C2.59943 5.39006 1.09029 8.06206 0.614118 11.0004C0.13795 13.9388 0.726014 16.9507 2.27251 19.4941C3.819 22.0376 6.2224 23.9457 9.0503 24.8751C9.6753 24.9751 9.8753 24.5876 9.8753 24.2501V22.1376C6.4128 22.8876 5.6753 20.5001 5.6753 20.5001C5.44186 19.7237 4.9358 19.0579 4.2503 18.6251C3.1128 17.8501 4.3378 17.8751 4.3378 17.8751C4.73017 17.9258 5.106 18.0646 5.43718 18.2811C5.76836 18.4976 6.04633 18.7861 6.2503 19.1251C6.59752 19.7425 7.17445 20.1978 7.85562 20.3921C8.53679 20.5864 9.26713 20.5039 9.8878 20.1626C9.94475 19.5289 10.2236 18.9357 10.6753 18.4876C8.0003 18.2126 5.0253 17.1376 5.0253 12.3751C4.98914 11.1269 5.43704 9.9131 6.2753 8.98759C5.89472 7.91188 5.93944 6.73142 6.4003 5.68759C6.4003 5.68759 7.4503 5.35009 9.8378 6.93759C11.8848 6.38731 14.0408 6.38731 16.0878 6.93759C18.4753 5.32509 19.5253 5.68759 19.5253 5.68759C19.9862 6.73142 20.0309 7.91188 19.6503 8.98759C20.4886 9.9131 20.9365 11.1269 20.9003 12.3751C20.9003 17.1501 17.9753 18.2001 15.1878 18.5126C15.488 18.8144 15.7203 19.1768 15.869 19.5756C16.0178 19.9744 16.0796 20.4004 16.0503 20.8251V24.2501C16.0503 24.5876 16.2503 24.9876 16.8878 24.8751C19.7105 23.9473 22.1105 22.0444 23.6573 19.5075C25.2041 16.9705 25.7967 13.9656 25.3287 11.0314C24.8607 8.09716 23.3628 5.4256 21.1036 3.4957C18.8444 1.56581 15.9716 0.503796 13.0003 0.500089Z" fill="white"/>
</svg>
