<svg width="48" height="51" viewBox="0 0 48 51" fill="none" xmlns="http://www.w3.org/2000/svg">
<path d="M32.5 50H17.5V33.5L10 31L5.5 23L7 13.5L10 2.5L17.5 5H29.5L40.5 3L43.5 14.5V26.5L31.5 34.5L32.5 50Z" fill="#313131"/>
<path d="M10.7883 10.4967C10.1638 8.90203 10.1883 7.07971 10.4667 5.41103C12.3617 5.99268 14.1902 6.88333 15.7671 8.08846C16.4639 8.62101 17.3821 8.79561 18.2379 8.53631C20.3119 7.90786 22.5949 7.55713 25.0006 7.55713C27.4041 7.55713 29.6849 7.90718 31.7574 8.53451C32.6129 8.79343 33.5304 8.61891 34.2271 8.08676C35.8034 6.88253 37.6311 5.99241 39.5251 5.41103C39.8034 7.07811 39.8279 8.89823 39.2056 10.4919C38.8306 11.4518 39.0186 12.5572 39.7251 13.3412C41.5351 15.3493 42.5006 17.6589 42.5006 20.0572C42.5006 25.3424 37.5771 30.5244 29.6661 32.1024C27.6851 32.4977 26.9121 34.9884 28.4284 36.4169C29.3996 37.3319 30.0006 38.6222 30.0006 40.0572V47.5572C30.0006 48.9377 31.1199 50.0572 32.5006 50.0572C33.8814 50.0572 35.0006 48.9377 35.0006 47.5572V40.0572C35.0006 38.6327 34.7019 37.2769 34.1649 36.0499C41.7084 33.4314 47.5006 27.5382 47.5006 20.0572C47.5006 16.6882 46.2896 13.594 44.2826 11.002C44.8071 8.95301 44.7606 6.88638 44.5611 5.30091C44.3826 3.88206 44.1344 2.02108 43.1336 0.912206C41.6471 -0.734544 39.1836 0.234406 37.4336 0.833131C35.8876 1.35881 33.9751 2.19666 32.1224 3.44566C29.8786 2.86783 27.4831 2.55713 25.0006 2.55713C22.5156 2.55713 20.1176 2.86846 17.8721 3.44738C16.0191 2.19776 14.106 1.35951 12.5595 0.83358C10.8097 0.23478 8.34449 -0.734619 6.85816 0.912506C5.83919 2.04168 5.62449 3.75486 5.44231 5.20853L5.43026 5.30453C5.23091 6.89158 5.18496 8.96046 5.71169 11.0111C3.70869 13.6013 2.50061 16.6922 2.50061 20.0572C2.50061 27.5382 8.29286 33.4314 15.8365 36.0499C15.3055 37.2627 15.0076 38.6012 15.0007 40.0077L14.5814 40.0914C12.7893 40.3384 11.6413 40.1184 10.8599 39.7869C8.95971 38.9809 7.98124 36.9534 6.78359 35.4037C6.03946 34.4407 4.95569 33.2402 3.29124 32.6854C1.98139 32.2489 0.565586 32.9567 0.128961 34.2667C-0.307639 35.5764 0.40026 36.9922 1.71011 37.4289C3.10684 37.8944 4.07089 40.2842 4.95514 41.3452C5.88734 42.4639 7.12764 43.6349 8.90711 44.3899C10.6109 45.1127 12.6124 45.3714 15.0006 45.0789V47.5572C15.0006 48.9377 16.1199 50.0572 17.5006 50.0572C18.8813 50.0572 20.0006 48.9377 20.0006 47.5572V40.0572C20.0006 38.6222 20.6016 37.3319 21.5729 36.4169C23.0894 34.9882 22.3156 32.4977 20.3351 32.1024C12.4242 30.5244 7.50061 25.3424 7.50061 20.0572C7.50061 17.6612 8.46434 15.3539 10.2707 13.3471C10.9771 12.5624 11.1641 11.4566 10.7883 10.4967Z" fill="#979797"/>
</svg>
