<svg width="61" height="45" viewBox="0 0 61 45" fill="none" xmlns="http://www.w3.org/2000/svg">
<path d="M60.6986 37.3803C60.6986 39.1484 59.9962 40.8441 58.746 42.0944C57.4957 43.3446 55.8001 44.047 54.0319 44.047H40.6986V0.713654H54.0319C55.8001 0.713654 57.4957 1.41603 58.746 2.66627C59.9962 3.91652 60.6986 5.61221 60.6986 7.38032V37.3803Z" fill="#CE2B37"/>
<path d="M7.36527 0.713654C5.59716 0.713654 3.90147 1.41603 2.65123 2.66627C1.40099 3.91652 0.698608 5.61221 0.698608 7.38032L0.698608 37.3803C0.698608 39.1484 1.40099 40.8441 2.65123 42.0944C3.90147 43.3446 5.59716 44.047 7.36527 44.047H20.6986V0.713654H7.36527Z" fill="#009246"/>
<path d="M20.6986 0.713654H40.6986V44.047H20.6986V0.713654Z" fill="#EEEEEE"/>
</svg>
