<svg width="55" height="55" viewBox="0 0 55 55" fill="none" xmlns="http://www.w3.org/2000/svg">
<path d="M4 4.5V51H51.5V4.5H4Z" fill="#313131"/>
<path d="M13.75 17.5C15.8211 17.5 17.5 15.8211 17.5 13.75C17.5 11.6789 15.8211 10 13.75 10C11.6789 10 10 11.6789 10 13.75C10 15.8211 11.6789 17.5 13.75 17.5Z" fill="#979797"/>
<path d="M10 22.5C10 21.1193 11.1193 20 12.5 20H15C16.3807 20 17.5 21.1193 17.5 22.5V42.5C17.5 43.8807 16.3807 45 15 45H12.5C11.1193 45 10 43.8807 10 42.5V22.5Z" fill="#979797"/>
<path d="M25 45H27.5C28.8807 45 30 43.8807 30 42.5V31.25C30 27.5 37.5 25 37.5 30V42.501C37.5 43.8818 38.6193 45 40 45H42.5C43.8807 45 45 43.8807 45 42.5V27.5C45 22.5 41.25 20 36.25 20C31.25 20 30 23.75 30 23.75V22.5C30 21.1193 28.8807 20 27.5 20H25C23.6193 20 22.5 21.1193 22.5 22.5V42.5C22.5 43.8807 23.6193 45 25 45Z" fill="#979797"/>
<path fill-rule="evenodd" clip-rule="evenodd" d="M47.5 0C51.6423 0 55 3.35788 55 7.5V47.5C55 51.6423 51.6423 55 47.5 55H7.5C3.35788 55 0 51.6423 0 47.5V7.5C0 3.35788 3.35788 0 7.5 0H47.5ZM47.5 5C48.8807 5 50 6.1193 50 7.5V47.5C50 48.8807 48.8807 50 47.5 50H7.5C6.1193 50 5 48.8807 5 47.5V7.5C5 6.1193 6.1193 5 7.5 5H47.5Z" fill="#979797"/>
</svg>
