<svg width="25" height="25" viewBox="0 0 25 25" fill="none" xmlns="http://www.w3.org/2000/svg">
<path d="M22.2997 0.834124H2.83092C2.57999 0.82237 2.32919 0.860214 2.09289 0.945512C1.8566 1.03081 1.63945 1.16187 1.45386 1.33118C1.26829 1.50051 1.11792 1.70478 1.01139 1.93228C0.90486 2.15979 0.844237 2.40608 0.833008 2.65704V22.1696C0.847708 22.6947 1.06293 23.1945 1.43447 23.5659C1.80601 23.9375 2.30569 24.1528 2.83092 24.1675H22.2997C22.8102 24.1447 23.2916 23.9228 23.6406 23.5493C23.9896 23.1758 24.1783 22.6806 24.1663 22.1696V2.65704C24.1706 2.41277 24.1248 2.17023 24.0319 1.94428C23.939 1.71834 23.8009 1.51375 23.626 1.34305C23.4513 1.17237 23.2435 1.0392 23.0154 0.951681C22.7873 0.864166 22.5438 0.824164 22.2997 0.834124ZM8.12467 20.2883H4.72676V9.89042H8.12467V20.2883ZM6.50592 8.31537C6.26881 8.32364 6.03255 8.28278 5.81199 8.19537C5.59142 8.10796 5.39131 7.97587 5.22424 7.80742C5.05716 7.63897 4.92671 7.43779 4.84111 7.21652C4.75549 6.99525 4.71656 6.75866 4.72676 6.52162C4.71627 6.28202 4.75598 6.04288 4.84335 5.81954C4.93072 5.59618 5.06381 5.39356 5.23407 5.22467C5.40434 5.05577 5.60803 4.92433 5.83207 4.83878C6.05613 4.75322 6.29559 4.71545 6.53509 4.72787C6.7722 4.71962 7.00847 4.76047 7.22903 4.84788C7.4496 4.93529 7.64971 5.06737 7.81678 5.23583C7.98386 5.40428 8.11431 5.60546 8.19991 5.82673C8.28553 6.048 8.32445 6.28459 8.31426 6.52162C8.32474 6.76123 8.28503 7.00037 8.19766 7.22371C8.1103 7.44707 7.97721 7.64969 7.80695 7.81858C7.63667 7.98748 7.43299 8.11892 7.20894 8.20447C6.98489 8.29003 6.74543 8.3278 6.50592 8.31537ZM20.2872 20.2883H16.8747V14.6008C16.8747 13.2446 16.3934 12.3113 15.183 12.3113C14.8071 12.3145 14.4412 12.4339 14.1358 12.6532C13.8303 12.8726 13.6001 13.181 13.4768 13.5363C13.382 13.8025 13.3423 14.0853 13.3601 14.3675V20.2883H10.0059V9.89042H13.3601V11.3488C13.6583 10.8009 14.1021 10.3461 14.6426 10.0346C15.183 9.72329 15.799 9.56737 16.4226 9.58412C18.6247 9.58412 20.2872 11.0425 20.2872 14.1488V20.2883Z" fill="white"/>
</svg>
