<svg width="51" height="41" viewBox="0 0 51 41" fill="none" xmlns="http://www.w3.org/2000/svg">
<path d="M3.5 5V36L47 37V3.5L3.5 5Z" fill="#313131"/>
<path d="M3 10.5L16.6248 19.5832C19.8324 21.7215 21.4362 22.7908 23.1695 23.2063C24.7015 23.5733 26.2985 23.5733 27.8305 23.2063C29.5638 22.7908 31.1678 21.7215 34.3753 19.5832L48 10.5M11 38H40C42.8002 38 44.2005 38 45.27 37.455C46.2108 36.9757 46.9757 36.2108 47.455 35.27C48 34.2005 48 32.8003 48 30V11C48 8.19975 48 6.7996 47.455 5.73005C46.9757 4.78923 46.2108 4.02432 45.27 3.54497C44.2005 3 42.8002 3 40 3H11C8.19975 3 6.7996 3 5.73005 3.54497C4.78923 4.02432 4.02432 4.78923 3.54497 5.73005C3 6.7996 3 8.19972 3 11V30C3 32.8003 3 34.2005 3.54497 35.27C4.02432 36.2108 4.78923 36.9757 5.73005 37.455C6.7996 38 8.19972 38 11 38Z" stroke="#979797" stroke-width="5" stroke-linecap="round" stroke-linejoin="round"/>
</svg>
