<svg width="28" height="22" viewBox="0 0 28 22" fill="none" xmlns="http://www.w3.org/2000/svg">
<path fill-rule="evenodd" clip-rule="evenodd" d="M5.95769 0.333985H22.043C22.6278 0.333972 23.1325 0.333958 23.5502 0.362451C23.9899 0.392465 24.4298 0.458465 24.8645 0.638465C25.8445 1.04444 26.6233 1.82315 27.0291 2.80325C27.2091 3.23783 27.2751 3.6777 27.3053 4.11748C27.3337 4.53516 27.3337 5.0398 27.3337 5.62467V16.3767C27.3337 16.9615 27.3337 17.4661 27.3053 17.8839C27.2751 18.3236 27.2091 18.7635 27.0291 19.1981C26.6233 20.1781 25.8445 20.9569 24.8645 21.3628C24.4298 21.5428 23.9899 21.6088 23.5502 21.6389C23.1325 21.6673 22.6278 21.6673 22.043 21.6673H5.95767C5.37281 21.6673 4.86817 21.6673 4.45049 21.6389C4.01071 21.6088 3.57083 21.5428 3.13626 21.3628C2.15615 20.9569 1.37745 20.1781 0.971473 19.1981C0.791473 18.7635 0.725473 18.3236 0.695459 17.8839C0.666966 17.4661 0.666979 16.9615 0.666993 16.3767V5.62468C0.666979 5.03981 0.666966 4.53516 0.695459 4.11748C0.725473 3.6777 0.791473 3.23783 0.971473 2.80325C1.37745 1.82315 2.15615 1.04444 3.13626 0.638465C3.57083 0.458465 4.01071 0.392465 4.45049 0.362451C4.86817 0.333958 5.37282 0.333972 5.95769 0.333985ZM3.75693 3.37101C4.24185 2.81684 5.08419 2.76068 5.63838 3.24559L13.1223 9.79399C13.625 10.2339 14.3757 10.2339 14.8783 9.79399L22.3623 3.24559C22.9165 2.76068 23.7589 2.81684 24.2437 3.37101C24.7286 3.9252 24.6725 4.76755 24.1183 5.25245L16.6343 11.8009C15.1262 13.1205 12.8745 13.1205 11.3663 11.8009L3.88237 5.25245C3.32818 4.76755 3.27202 3.9252 3.75693 3.37101Z" fill="white"/>
</svg>
