<svg width="30" height="39" viewBox="0 0 30 39" fill="none" xmlns="http://www.w3.org/2000/svg">
<path d="M1.5 12V36.5H27.5V1.5H11.5L1.5 12Z" fill="#313131"/>
<path d="M25.35 0H11.475C10.8 0 10.425 0.375 10.35 0.45L0.45 10.35C0.375 10.425 0 10.8 0 11.4V34.275C0 36.6 1.875 38.475 4.2 38.475H25.275C27.6 38.475 29.475 36.6 29.475 34.275V4.2C29.55 1.875 27.675 0 25.35 0ZM9.9 5.325V8.7C9.9 9.3 9.45 9.75 8.85 9.75H5.4L9.9 5.325ZM26.4 34.35C26.4 34.95 25.875 35.4 25.35 35.4H4.2C3.6 35.4 3.15 34.875 3.15 34.35V13.05H8.85C11.175 13.05 13.05 11.175 13.05 8.85V3.15H25.275C25.875 3.15 26.325 3.6 26.325 4.2L26.4 34.35Z" fill="#979797"/>
</svg>
