<svg width="31" height="39" viewBox="0 0 31 39" fill="none" xmlns="http://www.w3.org/2000/svg">
<path d="M15.5 13.2506L0.5 6.99938L15.5 0.75L30.5 6.99938L15.5 13.2506ZM0.5 16.1531L14.8475 21.4669C15.271 21.6237 15.7365 21.6237 16.16 21.4669L30.5 16.1531V12.1519L15.5 17.7094L0.5 12.1519V16.1531ZM0.5 24.4856L14.8475 29.8012C15.271 29.958 15.7365 29.958 16.16 29.8012L30.5 24.4856V20.4863L15.5 26.0419L0.5 20.4863V24.4856ZM0.5 32.8125L14.8475 38.1281C15.271 38.2849 15.7365 38.2849 16.16 38.1281L30.5 32.8125V28.8187L15.5 34.3763L0.5 28.8187V32.8125Z" fill="#955DF6"/>
</svg>
