<svg width="18" height="7" viewBox="0 0 18 7" fill="none" xmlns="http://www.w3.org/2000/svg">
<rect width="15" height="1" transform="matrix(-1 0 0 1 18 3)" fill="currentColor"/>
<rect width="1" height="1" transform="matrix(-1 0 0 1 3 3)" fill="currentColor"/>
<rect width="1" height="1" transform="matrix(-1 0 0 1 2 3)" fill="currentColor"/>
<rect width="1" height="1" transform="matrix(-1 0 0 1 1 3)" fill="currentColor"/>
<rect width="1" height="1" transform="matrix(-1 0 0 1 3 5)" fill="currentColor"/>
<rect width="1" height="1" transform="matrix(-1 0 0 1 2 4)" fill="currentColor"/>
<rect width="1" height="1" transform="matrix(-1 0 0 1 3 1)" fill="currentColor"/>
<rect width="1" height="1" transform="matrix(-1 0 0 1 2 2)" fill="currentColor"/>
</svg>
