<svg width="91" height="54" viewBox="0 0 91 54" fill="none" xmlns="http://www.w3.org/2000/svg">
<path d="M1.82 54C1.44667 54 1.14333 53.9067 0.91 53.72C0.676667 53.5333 0.56 53.2767 0.56 52.95L0.7 52.39L17.99 1.71C18.27 0.963332 18.8067 0.589999 19.6 0.589999H30.8C31.5933 0.589999 32.13 0.963332 32.41 1.71L49.7 52.39L49.84 52.95C49.84 53.2767 49.7233 53.5333 49.49 53.72C49.2567 53.9067 48.9533 54 48.58 54H38.15C37.3567 54 36.8433 53.6033 36.61 52.81L34.44 45.6C34.2067 44.8067 33.6933 44.41 32.9 44.41H17.5C16.7067 44.41 16.1933 44.8067 15.96 45.6L13.79 52.81C13.5567 53.6033 13.0433 54 12.25 54H1.82ZM29.19 33.56C29.6567 33.56 29.9833 33.42 30.17 33.14C30.4033 32.8133 30.45 32.4167 30.31 31.95L26.11 17.53C26.0633 17.25 25.9467 17.0167 25.76 16.83C25.5733 16.6433 25.3867 16.55 25.2 16.55C24.8267 16.55 24.5233 16.8767 24.29 17.53L20.09 31.95C20.0433 32.09 20.02 32.2767 20.02 32.51C20.02 33.21 20.4167 33.56 21.21 33.56H29.19ZM52.2009 54C51.2675 54 50.8009 53.5333 50.8009 52.6V46.51C50.8009 45.95 50.9875 45.3667 51.3609 44.76L73.3409 13.47C73.5275 13.2367 73.6209 12.98 73.6209 12.7C73.6209 12.0933 73.2242 11.79 72.4309 11.79H53.6709C52.7375 11.79 52.2709 11.3233 52.2709 10.39V1.99C52.2709 1.05667 52.7375 0.589999 53.6709 0.589999H88.9509C89.8842 0.589999 90.3509 1.05667 90.3509 1.99V8.5C90.3509 9.06 90.1642 9.64333 89.7909 10.25L68.2309 41.12C68.0442 41.3533 67.9509 41.6333 67.9509 41.96C67.9509 42.1933 68.0442 42.4033 68.2309 42.59C68.4642 42.73 68.7675 42.8 69.1409 42.8H89.0909C90.0242 42.8 90.4909 43.2667 90.4909 44.2V52.6C90.4909 53.5333 90.0242 54 89.0909 54H52.2009Z" fill="#5564D3"/>
</svg>
